<?xml version="1.0" encoding="UTF-8"?>
<svg id="Layer_2" data-name="Layer 2" xmlns="http://www.w3.org/2000/svg" viewBox="0 0 95.01 125.94">
  <defs>
    <style>
      .cls-1 {
        fill: #4a557e;
      }

      .cls-2 {
        fill: none;
        stroke: #4a557e;
        stroke-miterlimit: 10;
      }
    </style>
  </defs>
  <g id="Layer_10" data-name="Layer 10">
    <g>
      <rect class="cls-2" x=".5" y=".5" width="94.01" height="124.94"/>
      <path class="cls-1" d="M22.57,88.82c-1.33,1.06-2.58,2.03-4.38,2.03-2.01,0-2.68-1.43-3.48-3.04-.82,1.56-1.53,2.93-2.26,4.3-.23,.43-.45,.87-.73,1.27-.14,.19-.4,.29-.6,.44-.08-.27-.3-.61-.21-.81,.32-.8,.79-1.55,1.11-2.35,.91-2.28,1.78-4.58,2.64-6.88,.08-.22,.06-.62-.08-.73-.16-.13-.51-.08-.77-.04-.16,.02-.29,.25-.44,.26-.38,.02-.76-.04-1.14-.07,.21-.29,.37-.66,.64-.84,.55-.36,1.23-.53,1.73-.93,.4-.32,.73-.84,.87-1.33,.29-1.07,.4-2.2,.68-3.27,.09-.34,.49-.61,.75-.91,.15,.41,.45,.83,.43,1.23-.04,.69-.32,1.36-.41,2.04-.1,.82,.28,1.09,1.07,.81,.56-.2,1.09-.47,1.66-.63,.2-.05,.47,.15,.71,.24-.13,.22-.2,.56-.39,.65-.85,.4-1.72,.76-2.6,1.09-.7,.26-1.09,.71-1.1,1.47-.02,1.6-.16,3.2-.04,4.79,.13,1.78,1.41,2.49,3.13,1.92,1.68-.55,2.82-1.77,3.45-3.3,.63-1.51,.93-3.17,1.3-4.78,.47-2.03,.86-4.08,1.33-6.11,.11-.46,.28-.96,.57-1.32,.26-.32,.78-.7,1.08-.63,.35,.08,.85,.67,.82,.98-.16,1.4-.42,2.8-.77,4.17-.37,1.45-.87,2.86-1.32,4.29-.22,.72-.15,1.23,.65,1.61,.61,.29,1.16,.79,1.6,1.31,1.74,2.06,4.02,2.31,6.46,1.98,1.05-.14,2.11-.22,2.98-1.08,.65-.64,.65-1.14,.33-1.93-.24-.59-.36-1.38-.18-1.97,.35-1.14,1.34-1.23,2.02-.25,.24,.35,.39,.82,.42,1.25,.08,1.21,.41,1.62,1.57,1.28,1.49-.44,2.93-1.06,4.36-1.65,.7-.29,1.33-.74,2.02-1.05,.2-.09,.51,.06,.76,.09-.06,.25-.04,.62-.19,.73-.74,.52-1.48,1.05-2.3,1.42-1.96,.9-3.9,1.86-6.18,1.64-.34-.03-.84,.19-1.07,.47-1.67,2-3.94,2.34-6.33,2.36-2.26,.01-4.09-.85-5.58-2.58-.9-1.04-1.28-.96-1.87,.26-.41,.84-.69,1.74-1.07,2.59-.14,.31-.4,.56-.61,.84-.23-.25-.47-.49-.69-.75-.12-.15-.2-.33-.34-.57Z"/>
      <g>
        <path class="cls-1" d="M29.12,107.53c0-2.95-.02-5.9,0-8.86,.01-1.29,.51-1.6,1.72-1.26,.49,.14,1.03,.2,1.53,.16,1.81-.14,3.42,.54,4.74,1.58,3.19,2.5,2.63,6.07-.39,8.06-1.76,1.16-3.9,1.77-5.92,2.49-1.15,.41-1.84-.48-1.7-2.17Zm1.84-4.24s.05,0,.07,0c0,1.08-.02,2.16,0,3.24,.02,.76,.44,1.14,1.17,.83,1.33-.57,2.73-1.07,3.91-1.89,1.53-1.06,1.67-2.85,.49-4.26-1.26-1.51-2.98-1.99-4.86-1.82-.29,.03-.72,.62-.76,.99-.11,.96-.04,1.95-.04,2.92Z"/>
        <path class="cls-1" d="M40.37,102.79c.25-1.68,.45-3.37,.8-5.03,.07-.35,.69-.77,1.11-.82,1.03-.14,2.09-.15,3.13-.07,.38,.03,.73,.43,1.1,.66-.33,.38-.59,.94-1.01,1.11-.52,.21-1.18,.03-1.75,.16-.39,.09-.93,.35-1.04,.66-.21,.59-.2,1.28-.16,1.92,0,.11,.6,.27,.91,.26,.45-.02,.9-.28,1.33-.23,.36,.04,.69,.37,1.04,.57-.25,.27-.46,.64-.77,.8-.52,.26-1.1,.4-1.67,.56-.67,.19-1.3,.55-1.03,1.27,.21,.56,.79,1.06,1.32,1.38,.3,.17,.87-.02,1.28-.17,.53-.18,1.02-.41,1.31,.28,.27,.65-.02,1.07-.62,1.33-2.29,.97-4.91,.13-5.2-2.85-.06-.59,0-1.18,0-1.77-.02,0-.05-.01-.07-.02Z"/>
        <path class="cls-1" d="M49.86,96.25c.13-.13,.37-.55,.55-.53,.34,.05,.83,.29,.92,.56,.29,.92,.43,1.89,.64,2.85,.23,1.05,.43,2.11,.71,3.15,.08,.28,.37,.51,.56,.77,.2-.22,.5-.4,.58-.66,.37-1.08,.67-2.19,1.02-3.28,.33-1.03,.68-2.04,1.05-3.06,.11-.29,.25-.68,.48-.77,.41-.16,.93-.23,1.35-.13,.14,.03,.25,.76,.15,1.1-.63,2.08-1.29,4.16-2.01,6.21-.34,.98-.79,1.93-1.26,2.86-.59,1.15-1.84,1.23-2.42,.06-.62-1.26-1.09-2.62-1.42-3.99-.4-1.61-.58-3.28-.9-5.12Z"/>
        <path class="cls-1" d="M69.82,105.33c-.82-.13-1.61-.16-2.31-.4-1.44-.49-1.78-1.11-1.52-2.62,.19-1.09,.48-2.17,.7-3.26,.27-1.32,.52-2.65,.78-3.98,.08-.41,.09-.87,.29-1.21,.22-.36,.64-.59,.98-.88,.16,.41,.52,.85,.45,1.22-.42,2.53-.96,5.04-1.41,7.56-.23,1.31,.12,1.7,1.48,1.7,.9,0,1.81-.19,2.7-.13,.42,.03,.81,.46,1.21,.7-.32,.31-.59,.78-.97,.89-.79,.23-1.63,.27-2.4,.38Z"/>
        <path class="cls-1" d="M60.56,103.61c.47-2.91,.92-5.83,1.44-8.73,.06-.32,.57-.57,.86-.85,.2,.33,.57,.66,.56,.99-.01,.83-.22,1.65-.31,2.48-.26,2.45-.52,4.9-.73,7.35-.06,.67-.16,1.19-.96,1.17-.79-.02-.71-.61-.72-1.13,0-.42,0-.83,0-1.25l-.15-.03Z"/>
      </g>
      <g>
        <path class="cls-1" d="M14.19,21.38c.12,1,.18,1.63,.27,2.25,.11,.74,.31,1.48,.35,2.22,.02,.33-.26,.68-.4,1.02-.3-.29-.73-.52-.86-.87-.2-.53-.18-1.15-.27-1.72-.08-.52-.17-1.03-.26-1.54-.11,0-.22,0-.32,0-.04,.37-.07,.75-.13,1.12-.08,.49-.09,1.02-.31,1.45-.13,.26-.57,.37-.88,.54-.13-.28-.32-.55-.37-.85-.05-.28,.11-.58,.07-.87-.1-.74,.17-1.7-.93-1.93-.74-.15-2.21,.72-2.4,1.44-.3,1.09-.49,2.2-.81,3.28-.13,.45-.5,.82-.75,1.23-.16-.04-.33-.08-.49-.12-.03-.48-.14-.98-.06-1.45,.22-1.29,.51-2.58,.79-3.86,.45-2.02,.91-4.04,1.43-6.04,.07-.27,.58-.69,.76-.63,.48,.15,1.06,.43,1.29,.83,.7,1.22,1.25,2.53,1.86,3.81,.13,.28,.26,.55,.69,.8,.04-.29,.17-.6,.1-.86-.39-1.34-.88-2.65-1.24-3.99-.08-.31,.15-.94,.39-1.04,.64-.26,1.38-.49,2.05-.41,1.73,.21,3.16-.62,4.67-1.15,.86-.3,1.68-.74,2.56-.97,.38-.1,.86,.2,1.3,.31-.28,.3-.5,.75-.84,.86-1.19,.39-1.33,1.07-1.05,2.22,.58,2.39,.97,4.82,1.43,7.23,.19,.97-.12,1.55-1.22,1.52-.32,0-.69,.03-.96,.17-.88,.47-1.16,.14-1.53-.72-.67-1.57-2.2-2.23-3.93-3.3Zm6.49,1.25c-.51-1.98-.97-3.96-1.57-5.89-.14-.44-.83-1.12-1.1-1.04-.64,.17-1.26,.64-1.72,1.14-.43,.47-.61,1.16-.98,1.71-.7,1.04-.58,1.39,.42,2.11,1.1,.78,2.08,1.73,3.13,2.58,.36,.29,.79,.52,1.18,.77,.19-.42,.39-.84,.63-1.37Zm-11.9-4.1c-.13,.66-.29,1.22-.31,1.78-.01,.27,.18,.71,.39,.79,.23,.09,.64-.08,.88-.26,.78-.58,.51-1.36-.95-2.31Zm4.44-.58c.27,.08,.54,.16,.81,.24,.21-.51,.41-1.03,.62-1.54-.37-.11-.73-.22-1.1-.33-.11,.54-.22,1.09-.33,1.63Z"/>
        <path class="cls-1" d="M24.21,34.11c1.2-.5,2.43-.94,3.77-.68,.29,.06,.66,.51,.73,.84,.44,2.22-1.24,4.37-3.79,4.93-1.87,.41-3.69-.83-4.2-3.01-.97-4.15,.89-6.3,4.53-7.65,.19-.07,.44-.13,.61-.07,.39,.14,.74,.37,1.11,.56-.3,.28-.59,.78-.92,.81-1.31,.11-2.23,.82-3.13,1.65-1.65,1.54-1.5,4.74,.31,6.12,.86,.65,1.73,.4,2.42-.15,.67-.53,1.44-1.21,1.65-1.97,.24-.85-.68-.77-1.32-.75-.59,.02-1.18-.02-1.78-.04,0-.2,0-.41,0-.61Z"/>
        <path class="cls-1" d="M35.22,38.05c0-.21,0-.42,0-.63,.02-.73,.08-1.47-.99-1.5-1.25-.04-1.98,.46-2.06,1.47-.04,.5,.04,1.01-.06,1.49-.05,.26-.38,.46-.58,.68-.22-.21-.56-.39-.63-.65-.11-.39-.07-.83-.04-1.24,.15-2.44,.28-4.89,.49-7.32,.04-.42,.44-.81,.67-1.21,.17,.44,.47,.88,.47,1.32,0,.91-.2,1.82-.23,2.73-.02,.61-.26,1.41,.77,1.55,1.07,.14,2.07-.45,2.18-1.37,.1-.83,0-1.68,.14-2.49,.08-.44,.51-.82,.79-1.23,.15,.41,.44,.82,.44,1.23,.01,2.58-.03,5.16-.08,7.75-.01,.56,.36,1.41-.63,1.42-.21,0-.44-.88-.62-1.37-.07-.18-.01-.41-.01-.62h-.01Z"/>
        <path class="cls-1" d="M54.67,19.77c.04,.87,.12,1.75,.11,2.62,0,.4-.08,.87-.31,1.17-.2,.26-.67,.32-1.02,.47-.07-.34-.13-.68-.2-1.02,0-.03,.03-.08,.04-.12,.39-1.42,.15-2.9-.49-3.1-.75-.24-2.99,1.01-3.43,1.85-.44,.85-.9,1.69-1.42,2.49-.14,.21-.53,.26-.81,.39-.04-.29-.21-.64-.1-.87,1.19-2.6,2.36-5.21,3.65-7.76,.78-1.54,1.86-1.57,2.65-.06,.64,1.22,1.02,2.58,1.52,3.87-.07,.03-.14,.05-.21,.08Zm-2.35-2.85c-.17-.06-.33-.12-.5-.19-.23,.56-.45,1.12-.68,1.68,.3,.05,.66,.24,.88,.13,.79-.4,.62-1.02,.3-1.62Z"/>
        <path class="cls-1" d="M33.48,12.81c-.57,.42-.8,.65-1.07,.76-.72,.31-1.46,.58-2.19,.85-1.05,.38-1.46,1.05-1.3,2.22,.12,.89,.32,1.41,1.34,1.33,.26-.02,.54,.25,.82,.39-.19,.23-.35,.61-.58,.67-1.39,.33-1.62,1.29-1.45,2.48,.12,.86,.36,1.71,.43,2.57,.02,.31-.29,.65-.45,.98-.26-.26-.69-.5-.74-.8-.18-.98-.02-2.07-.38-2.96-.62-1.49-.35-2.89-.22-4.39,.23-2.81,.4-3.16,3.17-4.2,.43-.16,.85-.43,1.28-.46,.34-.02,.7,.27,1.36,.54Z"/>
        <path class="cls-1" d="M41.68,42.09c-.12-.48-.35-.96-.35-1.43,0-2.33,0-4.67,.1-7,.03-.89-.05-1.47-1.13-1.47-.25,0-.5-.39-.76-.61,.25-.23,.46-.59,.76-.68,1.42-.44,2.85-.84,4.3-1.16,.32-.07,.73,.28,1.11,.43-.28,.25-.54,.68-.84,.71-1.51,.13-2.23,.87-2.23,2.4,0,2.37-.06,4.75-.14,7.12-.02,.56-.2,1.12-.3,1.68-.17,0-.34,0-.51,.01Z"/>
        <path class="cls-1" d="M8.8,34.94c.08-1.4,.08-2.41,.24-3.38,.06-.33,.55-.59,.85-.88,.1,.36,.29,.72,.29,1.08,.01,1.91-.08,3.83-.01,5.74,.06,1.68,.59,2.05,2.27,2.06,.44,0,.89,.34,1.33,.52-.42,.26-.81,.69-1.25,.76-2.13,.31-3.23-.52-3.52-2.68-.16-1.19-.15-2.4-.19-3.2Z"/>
        <path class="cls-1" d="M61.55,22.42c-.5-.05-1-.1-1.49-.17-1.88-.27-2.58-1.18-2.27-3.1,.28-1.72,.65-3.44,1.04-5.14,.06-.27,.45-.47,.68-.7,.19,.35,.6,.73,.55,1.04-.23,1.31-.61,2.6-.9,3.9-.48,2.18,.05,2.86,2.26,2.9,.04,0,.09,0,.12,0,.66,.14,1.65-.37,1.8,.72,.02,.17-1.1,.49-1.7,.75-.03-.06-.06-.13-.1-.19Z"/>
        <path class="cls-1" d="M25.42,13.66c.11,3.23,.21,6.45,.32,9.68,.01,.42,.05,.85-.04,1.24-.05,.22-.38,.58-.5,.55-.26-.07-.48-.33-.68-.55-.07-.07-.04-.24-.04-.36-.08-3.45-.16-6.9-.21-10.36,0-.34,.16-.72,.35-1.01,.08-.12,.54-.15,.66-.04,.21,.19,.29,.52,.42,.79-.09,.02-.18,.04-.27,.06Z"/>
        <path class="cls-1" d="M21.75,58.29c-.08-.05-.34-.21-.6-.37,.21-.27,.36-.69,.63-.79,.84-.32,1.6-.73,1.54-1.71-.06-.95-.54-1.7-1.58-2.01-.72-.21-1.02-1.62-.73-2.75,.27-1.04,1.16-1.21,2-1.43,.09-.02,.39,.26,.37,.38-.04,.25-.15,.56-.33,.72-1.27,1.08-1.26,1.41,.09,2.38,1.3,.94,1.78,2.14,1.37,3.44-.37,1.18-1.46,2.11-2.75,2.14Z"/>
        <path class="cls-1" d="M40.63,23.12c-1.32-.14-2.38-1.53-2.46-2.96-.14-2.18,.65-4.09,1.86-5.84,.16-.23,.41-.54,.64-.56,.44-.04,.89,.11,1.33,.18-.18,.37-.26,.87-.55,1.08-1.61,1.15-2.53,3.77-1.77,5.54,.19,.44,.68,.75,1.03,1.12,.25,.27,.49,.56,.74,.83-.33,.25-.67,.5-.82,.61Z"/>
        <path class="cls-1" d="M43,23.81c.65-3.2,1.28-6.26,1.91-9.32,.04-.2,.13-.45,.28-.55,.27-.18,.61-.27,.92-.39,.04,.3,.16,.61,.11,.88-.51,2.66-1.05,5.3-1.57,7.96-.09,.45,0,.95-.15,1.36-.16,.4-.53,.72-.81,1.07-.23-.33-.46-.67-.69-1.02Z"/>
        <path class="cls-1" d="M34.65,25.07c-.23-.59-.53-.99-.52-1.38,.08-2.74,.21-5.48,.34-8.21,.02-.33,.06-.67,.2-.97,.08-.18,.38-.38,.55-.35,.18,.03,.48,.31,.47,.47-.15,3.26-.33,6.53-.52,9.79,0,.13-.19,.25-.52,.65Z"/>
        <path class="cls-1" d="M17.81,31.08c.16,.35,.42,.7,.48,1.07,.39,2.51,.77,5.02,1.08,7.54,.04,.29-.37,.63-.57,.94-.25-.22-.7-.42-.73-.67-.34-2.68-.63-5.38-.89-8.07-.02-.24,.18-.51,.28-.77,.12-.01,.24-.02,.36-.03Z"/>
        <path class="cls-1" d="M17.12,52.34c.27,.48,.69,.94,.79,1.45,.24,1.26,.39,2.55,.46,3.83,.02,.41-.31,.84-.49,1.26-.24-.35-.62-.67-.7-1.05-.25-1.22-.42-2.45-.56-3.69-.07-.54-.01-1.1-.01-1.64l.52-.15Z"/>
      </g>
      <g>
        <path class="cls-1" d="M74.44,1.19c.06,1.93,.03,3.86,.19,5.79,.17,2.13,.17,4.23-.15,6.34-.33,2.16-.67,4.32,.23,6.46,.13,.31-.02,.87-.23,1.18-.41,.62-.58,1.2-.37,1.93,.27,.94,.47,1.91,.72,2.86,.22,.86,.15,1.62-.65,2.16-.43,.29-.3,.71-.27,1.11,.12,1.49,.29,2.98,.33,4.48,.03,.85-.18,1.7-.24,2.55-.05,.7,.11,.84,.81,.8,.49-.03,.98-.12,1.47-.15,.58-.03,.97,.26,1.06,.82,.25,1.52,.49,3.04,.65,4.57,.14,1.34,.25,2.69,.24,4.04,0,.63-.15,1.4-.54,1.87-.86,1.05-.86,2.25-.97,3.45-.23,2.45-.42,4.91-.62,7.37-.06,.68-.13,1.37-.15,2.05-.06,1.56,.83,2.68,1.87,3.66,1.34,1.25,3.05,1.7,4.82,1.85,.9,.07,1.37-.34,1.5-1.23,.28-1.95,.52-3.9,.78-5.85,.28-2.1,.57-4.19,.84-6.29,.17-1.31,.36-2.63,.44-3.95,.03-.52-.07-1.18-.38-1.57-1.04-1.36-1.09-2.89-1.01-4.47,.09-1.82,.17-3.65,.23-5.47,.05-1.6,.62-2.14,1.95-2.12,.17,0,.34-.07,.51-.09,1.25-.17,1.89,.4,1.99,1.65,.18,2.2,.41,4.39,.61,6.59,.06,.6,.16,1.2,.12,1.79-.03,.58-.32,1.11-.9,1.3-1.03,.35-1.34,1.06-1.41,2.1-.18,2.61-.4,5.21-.74,7.8-.4,3.03-.94,6.04-1.43,9.05-.05,.31-.11,.63-.22,.93-.43,1.28-1.32,1.82-2.85,1.54-1.36-.25-2.7-.62-4.03-1.02-.98-.29-1.78-.92-2.46-1.7-.2-.23-.47-.39-.73-.59-.31,.81-.54,1.55-.87,2.23-.38,.8-.84,.9-1.5,.28-.48-.45-.85-1.01-1.28-1.51-.13-.14-.31-.24-.46-.36-.1,.17-.24,.33-.3,.51-.53,1.49-.99,3-1.57,4.47-.51,1.27-1.68,1.46-2.55,.39-.53-.64-.89-1.41-1.31-2.13-.16-.28-.27-.58-.43-.87-.35-.64-.7-.75-1.38-.42-1.37,.66-2.69,1.44-4.11,1.96-1.39,.51-2.87,.92-4.33,1.05-1.95,.18-2.45-.51-2.77-2.29-.54-3-.78-6.03-.56-9.09,.1-1.37,0-2.75,.04-4.13,.01-.54-.18-.94-.63-1.18-.93-.48-1.42-1.17-1.5-2.27-.19-2.67-.47-5.33-.73-7.99-.1-1.02,.33-1.69,1.24-2.08,.73-.31,1.44-.65,2.18-.92,.77-.28,1.37,.05,1.53,.86,.25,1.28,.45,2.57,.65,3.85,.29,1.84,.55,3.68,.85,5.51,.15,.88,0,1.67-.75,2.16-.77,.5-1.05,1.18-1.1,2.04-.22,3.45-.27,6.9,.22,10.34,.11,.74,.16,1.49,.28,2.23,.19,1.07,.71,1.51,1.76,1.24,2.28-.57,4.51-1.32,6.53-2.59,1.27-.79,1.28-1.88,1.03-3.14-.4-2.1-.8-4.2-1.11-6.31-.16-1.13-.85-1.91-1.54-2.68-.58-.65-.8-1.34-.83-2.21-.08-3.16-.25-6.31-.36-9.46-.04-1.11,.57-1.84,1.63-2.07,.33-.07,.68-.11,1.02-.14,1.19-.11,1.79,.54,1.89,2.04,.14,2.18,.26,4.37,.4,6.55,.05,.77,.18,1.53,.22,2.3,.05,1.01,0,2.03-.66,2.88-.46,.59-.4,1.26-.3,1.91,.31,2.05,.67,4.09,1,6.14,.09,.58,.41,1.01,.94,1.21,.52,.21,.89-.16,1.25-.47,1.27-1.11,1.33-2.5,1.08-4.05-.32-1.96-.5-3.95-.74-5.92-.25-2.04-.49-4.08-.72-6.12-.07-.62-.17-1.24-.16-1.85,.02-1,.6-1.64,1.53-1.92,1.02-.3,1.28-.98,1.32-1.98,.07-1.71,.25-3.41,.47-5.11,.19-1.43-.25-2.75-.56-4.1-.34-1.45-.86-2.91-.91-4.38-.06-1.67,.29-3.35,.52-5.02,.21-1.52,.54-3.03,.7-4.56,.11-1.02-.05-2.06,0-3.08,.1-1.97,.38-3.93,.37-5.9-.02-2.49-.26-4.97-.4-7.45,.52,0,1.03,0,1.55,0,.22,.63,.43,1.27,.68,1.98,.5-.64,.96-1.18,.74-1.98,.6,0,1.2,0,1.8,0Zm-.03,58.35c.16-.37,.42-.69,.44-1.03,.12-1.78,.2-3.57,.27-5.35,.03-.88,.02-1.76,0-2.64-.02-.61-.46-.97-1.12-.99-.68-.02-1.1,.27-1.13,.86-.05,.88-.12,1.76-.05,2.63,.14,1.68,.39,3.35,.54,5.03,.06,.66,.29,1.14,1.06,1.49Zm-23.47-15.33c.1,1.31,.17,2.55,.28,3.79,.09,1,.21,2,.37,2.99,.08,.51,1.01,1.04,1.52,.93,.52-.12,.9-.82,.81-1.4-.21-1.31-.39-2.62-.59-3.93-.16-1.03-.29-2.08-.5-3.1-.17-.82-.67-.96-1.34-.47-.44,.32-.67,.71-.56,1.19Zm10.97-2.08c-.14,.31-.35,.6-.39,.91-.08,.79-.13,1.59-.11,2.38,.05,1.67,.15,3.33,.25,5,.05,.79,.11,1.59,.84,2.15,.55-.48,.98-.99,.89-1.8-.07-.66-.08-1.32-.14-1.99-.14-1.71-.28-3.41-.42-5.12-.05-.63-.28-1.15-.93-1.53Zm25.3-4.95c-.14,.31-.39,.64-.43,1-.1,.96-.12,1.92-.14,2.88-.02,1.13-.04,2.25,0,3.38,.02,.6,.53,1.06,.95,1.02,.53-.05,.95-.56,.93-1.18-.08-1.86-.18-3.72-.29-5.58-.04-.62-.12-1.26-1.02-1.52Zm-19.05,31.89c.27-.33,.65-.59,.72-.93,.33-1.48,.6-2.97,.81-4.47,.08-.57-.37-.78-.82-.4-.57,.48-1.11,1.01-1.58,1.59-1.08,1.33-.69,3.24,.87,4.2Zm7.56-22.1c.69-.45,1.05-1,.96-1.84-.17-1.61-.25-3.24-.45-4.85-.07-.56-.36-1.09-.54-1.63-.09,0-.18,.01-.27,.02-.09,.24-.24,.48-.26,.72-.1,2.05-.15,4.1-.27,6.16-.04,.67,.23,1.1,.82,1.42Zm-6.98-2.25c-.46,.59-.89,1.05-.78,1.79,.23,1.49,.44,2.99,.66,4.49,.07,.48,.32,.83,.84,.77,.49-.06,.58-.49,.5-.89-.22-1.23-.48-2.46-.73-3.69-.07-.35-.31-.77-.19-1.04,.24-.57-.05-.92-.31-1.43Zm2.56,2.82c.83-.91,.85-2.28,.04-3.02-.91,.9-.93,2.32-.04,3.02Zm-.01-10.18c-.68,1.04-.64,2.37,.07,2.9,.96-.98,.95-2.09-.07-2.9Zm-.78-22.99c.49,.37,.86,.81,1.29,.89,.22,.04,.75-.53,.8-.87,.05-.34-.33-.74-.55-1.18-.55,.41-.97,.73-1.54,1.15Zm1.28,18.28c1.14-.93,1.14-.95,.21-1.84-.02-.01-.03-.04-.05-.04-.19-.04-.5-.18-.56-.1-.18,.21-.4,.56-.34,.76,.14,.43,.46,.79,.74,1.23Zm1.66-23.7c-.4-.38-.63-.71-.94-.88-.23-.12-.72,.54-.67,.93,.06,.44,.17,1.01,.7,.95,.3-.04,.54-.57,.92-1Zm-1.9,10.31c-.92,.8-.95,1.16-.11,1.78,.38-.32,.77-.66,1.2-1.02-.29-.22-.47-.36-.67-.5-.14-.1-.29-.18-.42-.27Zm-1.42,6.55c.48,.58,1.25,.46,1.99-.29-.84-.93-1.01-.91-1.99,.29Zm2.97,36c-.11,0-.22,.01-.33,.02-.03,.48-.17,.99-.05,1.43,.13,.45,.62,.56,1.18,.53-.29-.71-.54-1.34-.8-1.98Z"/>
        <path class="cls-1" d="M61.52,31.23c.11,.37,.3,.74,.31,1.11,.03,1.18,.04,2.36-.05,3.54-.02,.32-.43,.61-.65,.91-.28-.22-.78-.41-.81-.67-.25-1.72,.11-3.34,.92-4.86,.1-.01,.19-.02,.29-.03Z"/>
        <path class="cls-1" d="M50.53,37.63c-1.58-1.11-.78-2.45-.56-3.73,.14-.82,.83-1,1.51-1.29,.39,1.86-.32,3.42-.95,5.02Z"/>
        <path class="cls-1" d="M88.17,32.28c-1.13-.91-1.01-3.2,.19-4.01,.92,.74,.83,3.1-.19,4.01Z"/>
        <path class="cls-1" d="M77.53,31.03c.64,1.14,.32,2.21-.28,3.33-.51-.53-1.12-.93-.99-1.77,.12-.76,.35-1.42,1.27-1.56Z"/>
      </g>
    </g>
  </g>
</svg>