<?xml version="1.0" encoding="UTF-8"?>
<svg id="Layer_2" data-name="Layer 2" xmlns="http://www.w3.org/2000/svg" viewBox="0 0 68.66 108.69">
  <defs>
    <style>
      .cls-1 {
        fill: #4a557e;
      }
    </style>
  </defs>
  <g id="Layer_5" data-name="Layer 5">
    <g>
      <path class="cls-1" d="M16.07,92.63c.35-2.82,.78-6.28,1.21-9.73,.61-4.85,1.19-9.7,1.87-14.54,.78-5.5,1.68-10.99,2.51-16.49,.12-.79,.19-1.6,.2-2.4,.02-1.36-.66-1.99-2.04-2.22-3.03-.52-6.19-.79-8.99-1.94-4.18-1.71-7.4-4.76-9.09-9.13-.46-1.18-.9-2.38-1.3-3.58-.48-1.44-.95-3.06,.75-3.93,4.88-2.52,7.37-6.72,8.94-11.75,.68-2.18,2.1-3.9,4.08-5.3,1.13-.8,1.65-2.51,2.38-3.83,.68-1.23,1.2-2.55,1.95-3.73,.99-1.54,2.25-1.54,3.42-.12,.17,.21,.29,.45,.45,.67,1.72,2.5,2.63,2.56,4.55,.31,1.13-1.32,2.15-2.75,3.4-3.95C30.95,.37,31.97-.03,32.78,0c.41,.02,1.05,1.15,1.1,1.82,.42,4.86,2.71,8.9,5.48,12.7,3.03,4.15,5.57,8.52,6.46,13.64,.71,4.1,3.34,7.09,5.67,10.24,1.47,1.98,3.43,3.6,4.82,5.62,1.77,2.57,3.4,5.29,4.71,8.13,2.47,5.34,4.76,10.77,5.77,16.62,1.48,8.59,2.94,17.16,.73,25.9-1.53,6.05-7.48,11.69-13.73,12.58-2.38,.34-4.71,.97-7.09,1.27-4.57,.58-8.73-.34-12.4-3.38-.98-.81-2.49-.96-3.71-1.51-.95-.42-1.99-.82-2.7-1.52-.8-.78-1.36-.86-2.23-.25-4.07,2.88-8.31,1.05-9.14-3.98-.25-1.51-.28-3.07-.46-5.27ZM4.17,31.03c2.8,1.07,2.75,1.03,1.04,3.18-.35,.44-.5,1.53-.21,1.93,1.75,2.42,3.25,5.25,6.36,6.14,3.51,1,7.1,1.75,10.69,2.46,1.78,.35,2.81,1.17,2.86,3,.03,1-.05,2.01-.2,3-1.13,7.81-2.3,15.62-3.42,23.44-.77,5.37-1.66,10.74-2.14,16.14-.24,2.74,.14,5.57,.62,8.3,.14,.81,1.48,1.67,2.43,1.96,.44,.13,1.63-.96,1.86-1.69,.95-2.97,1.89-5.99,2.43-9.06,1.02-5.8,1.71-11.65,2.7-17.45,.13-.76,1.17-1.36,1.8-2.04,.4,.75,1.2,1.54,1.14,2.25-.28,3.46-.77,6.91-1.24,10.35-.61,4.51-1.27,9.01-1.87,13.52-.09,.65-.12,1.4,.11,1.98,.21,.54,.81,.93,1.24,1.39,.37-.4,.91-.74,1.09-1.22,1.34-3.66,3.85-5.16,7.62-4.49,7.09,1.27,12.99-1.48,16.89-7.71,.43-.69,1.48-.99,2.25-1.48,.11,.91,.56,1.95,.27,2.71-1.23,3.27-3.88,5.32-6.71,7.15-3.94,2.55-8.3,2.69-12.77,2.32-.92-.08-1.89-.05-2.79,.14-1.62,.34-2.76,2.76-1.67,3.7,1.88,1.63,3.87,3.29,6.11,4.3,3.85,1.75,7.75,0,11.61-.61,1.44-.23,2.97-.44,4.24-1.1,5.03-2.6,7.88-6.87,8.79-12.42,1.21-7.41,.11-14.72-1.36-21.96-.98-4.83-2.29-9.62-4.81-13.95-1.94-3.34-3.78-6.75-5.94-9.93-2.21-3.25-4.9-6.18-7.12-9.43-1.26-1.84-2.55-3.96-2.85-6.1-.7-4.84-3.17-8.73-5.57-12.76-2.1-3.52-5.17-6.49-5.91-10.79-.19-1.09-1.03-1.11-1.77-.29-.76,.85-1.47,1.75-2.29,2.53-2.15,2.05-3.33,2.02-5.45,0-.19-.19-.4-.36-.56-.58-.79-1.09-1.58-.88-2.22,.09-.39,.59-.53,1.35-.89,1.98-.69,1.23-1.19,2.82-2.26,3.54-2.02,1.37-3.31,3.12-4.01,5.33-1.36,4.29-3.24,8.19-7.14,10.8-.43,.29-.63,.92-.96,1.43Z"/>
      <path class="cls-1" d="M22.11,30.99c-.42,.47-.62,.88-.93,1-1.36,.51-2.73,1.01-4.13,1.34-.42,.1-1.32-.31-1.4-.63-.13-.53,.1-1.59,.42-1.7,1.49-.51,3.05-.85,4.62-1.05,.39-.05,.87,.62,1.42,1.04Z"/>
      <path class="cls-1" d="M19.1,36.94c-.91-.14-1.91-.09-2.7-.48-.48-.24-.63-1.14-.93-1.75,.57-.18,1.13-.53,1.7-.52,1.05,.03,2.15,.12,3.14,.45,.68,.23,1.2,.93,1.8,1.41-.66,.28-1.31,.6-1.99,.81-.29,.09-.65-.05-.98-.09,0,.05-.01,.1-.02,.16Z"/>
      <path class="cls-1" d="M16.54,26.02c-.66-.8-1.38-1.27-1.38-1.74,0-1.6,1.48-1.32,2.42-1.42,.48-.05,1.05,.66,1.57,1.03-.76,.62-1.51,1.23-2.62,2.13Z"/>
    </g>
  </g>
</svg>