<?xml version="1.0" encoding="UTF-8"?>
<svg id="Layer_2" data-name="Layer 2" xmlns="http://www.w3.org/2000/svg" viewBox="0 0 161.35 127.69">
  <defs>
    <style>
      .cls-1 {
        fill: #4a557e;
      }
    </style>
  </defs>
  <g id="Layer_6" data-name="Layer 6">
    <g>
      <path class="cls-1" d="M161.35,123.72c-15.62,6.56-32.46,3.07-48.87,2.81-25.7,.92-50.37-8.03-72.79-19.95C15.38,94.06-1.14,67.26,.06,39.78,2.98,15.98,28.09,1.18,50.27,0c14.11-.04,25.89,8.26,36.08,17.25,11.94,7.46,17.69,20.29,21.95,33.2,10.15,28.82,17.09,67.76,53.05,73.28Zm-94.5-56.78c-.13-.08-.26-.16-.39-.24,3.82-9.87,8.06-19.62,11.6-29.61,.98-2.87-2.71-4.39-3.79-1.37-3.54,8.97-7.35,17.82-11.02,26.73-1.07,4.89-8.73,15.86-6.18,19.71,2.67,1.51,4.97-2.01,6.43-3.9,6.7-9.1,13.25-18.32,20.38-27.09,1.35-2.53,6.7-5.39,4.35-8.44-4.81-3.06-17.83,20.3-21.37,24.21Zm12.3,29.35c.1,.18,.2,.37,.3,.55-2.04,2.31-3.89,4.82-6.16,6.88-3.45,3.88-14.98,4.07-11.06-3.29,.52-1.67,.1-3.69-2-3.39-3.37,1.14-3.61,5.34-3.24,8.36,1.19,6.19,10.17,5.72,14.88,4.38,11.06-5.85,15.75-19.64,23.07-29.34,1.04-2.57,5.82-6.37,2.86-8.84-1.04-.64-2.37-.35-3.19,.75-3.57,5.05-6.37,10.67-10.74,15.11-1.13,.9-7.33,6.96-7.08,3.02,.05-2.97,4.03-7.4,1.46-9.71-5.32-1.33-9.92,17.93,.9,15.5ZM59.29,16.5c-4.73,1.74-6.87,7.16-9.64,11.03-7.01,12.59-12.67,25.92-20.53,38.03-2.9,4.43,3.53,5.59,5.54,8.49,2.41,2.32,4.23,9.82,8.41,7.94,2.91-1.59-6.64-13.23-8.86-14.56-.27-.18-.43-.94-.28-1.24,8.69-14.37,15.01-29.98,24.34-43.96,1.49-1.56,4.13-4.26,1.02-5.73ZM17.71,53.39c-2.31,.11-2.43-.06-1.75-2.26,.85-3.43,1.44-6.98,2.56-10.33,1.92-6.31,12.28-25.32,19.74-23.09,2.3,1.73,4.69-1.74,2.47-3.34-3.29-1.34-7.07-5.84-10.65-4.13-2.47,2.33,3.86,3.41,1.15,5.13-7.66,6.02-13.67,13.99-16.64,23.31-1.64,2.45-2.11,15.05-5.1,13.86-1.36-.38-2.67,.54-2.87,1.73-.56,3.86,9.96,3.03,12.65,3.22,3.07-1.08,1.34-4.88-1.57-4.1Zm48.15-7.09c.5-4.23-6.24-9.29-9.79-6.74-5.69,4.47-16.45,18.24-7.04,23.54,8.86,.65,15.86-8.7,16.83-16.79Zm20.55,59.37c2.76,15.51,22.14-6.3,17.89-14.19-1.34-2.35-2.06-6.03-5.36-3.53-6.04,3.69-12.26,10.44-12.53,17.73Zm9.3-46.51c-4.4-16.8-17.68,5.87-18.35,13.48-1.73,7.06,11.44,6.98,5.7,1.32-1.28-.48-1.37-1.29-.9-2.42,1.34-1.67,1.09-6.58,3.88-5.85,7.83,2.64,8.94,1.56,9.66-6.53Zm12.81,49.2c-.17-.16-.34-.32-.51-.47,.22-3.92,6.99-9.47,4.88-12.16-1.62-1.58-3.63,.51-4.46,1.99-1.77,4.27-9.49,13.89-1.03,15.26,1.09,.02,1.7,.16,1.72,1.48,.31,2.44,3.43,1.45,4.25-.18,2.4-3.81,4.53-7.83,7.1-11.51,1.3-1.96-1.61-4.46-3.25-2.6-2.95,2.72-5.17,6.16-8.71,8.19Z"/>
      <path class="cls-1" d="M50.16,56.62c.38-4.82,3.03-8.42,6.17-11.85,1.45-1.58,2.61-1.22,3.86-.44,1.33,.83,1.42,1.98,.99,3.25-1.37,4.08-3.5,7.62-7.32,9.89-.47,.28-.97,.54-1.48,.74-2.16,.81-2.31,.7-2.22-1.59Z"/>
      <path class="cls-1" d="M100.62,94.54c-.91,1.96-1.74,4.01-2.8,5.93-1.31,2.38-3.06,4.41-5.56,5.65-.33,.16-.77,.21-1.13,.13-.13-.03-.26-.58-.21-.85,.59-3.18,1.73-6.15,3.88-8.59,1.18-1.34,2.62-2.46,3.99-3.63,.22-.18,.8-.27,.95-.13,.33,.31,.49,.81,.87,1.49Z"/>
      <path class="cls-1" d="M91.28,58.79c-.1,.61-.19,1.02-.22,1.43-.18,2.31-1.21,2.85-3.2,1.59-.26-.16-.48-.88-.35-1.08,.59-.87,1.27-1.68,2.02-2.41,.26-.25,.86-.29,1.25-.21,.24,.05,.39,.52,.5,.68Z"/>
    </g>
  </g>
</svg>